HIERARCHY
ROOT Hip
{
  OFFSET 0.0 0.0 0.0
  CHANNELS 6 Xposition Yposition Zposition Xrotation Yrotation Zrotation
  JOINT LowerSpine
  {
    OFFSET 0.0 0.061367 -0.03653
    CHANNELS 3 Xrotation Yrotation Zrotation
    JOINT MiddleSpine
    {
      OFFSET 0.0 0.056002 0.002633
      CHANNELS 3 Xrotation Yrotation Zrotation
      JOINT Chest
      {
        OFFSET 0.0 0.069296 -0.013882
        CHANNELS 3 Xrotation Yrotation Zrotation
        JOINT Neck
        {
          OFFSET 0.0 0.156156 -0.002923
          CHANNELS 3 Xrotation Yrotation Zrotation
          JOINT Head
          {
            OFFSET 0.0 0.088183 0.023986
            CHANNELS 3 Xrotation Yrotation Zrotation
            End Site
            {
              OFFSET 1e-06 0.123215 0.003678
            }
          }
        }
        JOINT LClavicle
        {
          OFFSET 0.014189 0.150698 0.046467
          CHANNELS 3 Xrotation Yrotation Zrotation
          JOINT LShoulder
          {
            OFFSET 0.082893 0.021616 -0.034976
            CHANNELS 3 Xrotation Yrotation Zrotation
            JOINT LForearm
            {
              OFFSET 0.195645 -0.000695 -0.001695
              CHANNELS 3 Xrotation Yrotation Zrotation
              JOINT LHand
              {
                OFFSET 0.163209 0.000474 -0.000977
                CHANNELS 3 Xrotation Yrotation Zrotation
                End Site
                {
                  OFFSET 0.0 0.006864 0.0
                }
              }
            }
          }
        }
        JOINT RClavicle
        {
          OFFSET -0.014189 0.150698 0.046467
          CHANNELS 3 Xrotation Yrotation Zrotation
          JOINT RShoulder
          {
            OFFSET -0.082908 0.021619 -0.034982
            CHANNELS 3 Xrotation Yrotation Zrotation
            JOINT RForearm
            {
              OFFSET -0.195645 -0.000695 -0.001695
              CHANNELS 3 Xrotation Yrotation Zrotation
              JOINT RHand
              {
                OFFSET -0.163209 0.000474 -0.000977
                CHANNELS 3 Xrotation Yrotation Zrotation
                End Site
                {
                  OFFSET 0.0 0.006864 0.0
                }
              }
            }
          }
        }
      }
    }
  }
  JOINT RThigh
  {
    OFFSET -0.072558 0.02774 -0.005953
    CHANNELS 3 Xrotation Yrotation Zrotation
    JOINT RShin
    {
      OFFSET -0.005253 -0.285537 0.0
      CHANNELS 3 Xrotation Yrotation Zrotation
      JOINT RFoot
      {
        OFFSET 0.0 -0.28038 0.0
        CHANNELS 3 Xrotation Yrotation Zrotation
        JOINT RToe
        {
          OFFSET 0.0 -0.030816 0.064441
          CHANNELS 3 Xrotation Yrotation Zrotation
          End Site
          {
            OFFSET 0.0 0.0 0.043231
          }
        }
      }
    }
  }
  JOINT LThigh
  {
    OFFSET 0.072557 0.027741 -0.005953
    CHANNELS 3 Xrotation Yrotation Zrotation
    JOINT LShin
    {
      OFFSET 0.005253 -0.285539 0.0
      CHANNELS 3 Xrotation Yrotation Zrotation
      JOINT LFoot
      {
        OFFSET 0.0 -0.28038 0.0
        CHANNELS 3 Xrotation Yrotation Zrotation
        JOINT LToe
        {
          OFFSET 0.0 -0.030816 0.064441
          CHANNELS 3 Xrotation Yrotation Zrotation
          End Site
          {
            OFFSET 0.0 0.0 0.043231
          }
        }
      }
    }
  }
}
MOTION
Frames: 13
Frame Time: 0.03333333333333333
0.005618 0.588687 0.00466 2.264119 0.510319 4.734977 -8.174544 5.436188 -4.572688 2.161623 0.609654 -10.069233 -2.21016 -2.113151 4.048048 -4.940489 -9.630642 -0.747649 -6.114835 8.824159 1.793267 -1.744154 9.295972 -14.287129 20.683018 -21.810392 -48.2785 5.235435 -35.117691 -8.048577 -7.93946 -5.149014 3.740314 6.832037 -0.853661 19.451733 16.845554 29.245008 51.334759 -4.655931 51.193588 9.252828 9.110331 1.855948 3.816579 -4.339498 -1.742632 -5.826998 4.987299 3.348634 5.639975 -5.935251 0.948184 10.408953 4.446243 -6.250319 -5.328073 1.334557 8.647065 -1.10017 2.738602 14.183502 1.110438 1.12645 5.429756 -6.378135 -9.85005 6.161552 2.405487 
-0.008596 0.584719 0.001208 3.5127 0.832438 7.800457 -8.022609 8.035134 -5.143782 0.555093 -0.865662 -14.413856 -2.857516 -5.154053 4.267757 0.786511 -12.731267 -1.853456 -6.006156 12.662214 3.346799 -5.696218 10.873113 -14.31071 22.607622 -18.025827 -43.913727 2.82391 -30.330011 -11.966244 -9.935543 -8.56424 6.356757 7.859239 5.845261 20.688778 15.178111 25.474365 47.675087 -8.54092 56.1152 19.315704 12.501019 4.00806 5.81282 -6.069311 -0.669493 -7.08675 7.660799 7.364912 3.958838 -5.139589 -1.00472 12.868997 5.430677 -11.086937 -7.050793 0.22842 12.89422 -3.980785 2.507283 16.360872 4.387429 3.2615 6.112695 -8.374582 -10.034658 10.24258 4.313649 
-0.018276 0.581953 -0.005217 2.902694 1.891722 8.181875 -6.083742 8.392427 -6.947168 0.027587 -1.48034 -15.208173 -2.546363 -6.526138 4.928239 3.951791 -12.939963 -1.646024 -5.680929 13.448704 3.549312 -7.00007 10.808926 -13.070592 21.852615 -17.115967 -43.124638 2.355007 -29.802244 -12.35859 -9.766512 -9.229356 7.167115 7.441227 7.469983 20.596169 15.237551 25.127661 47.380653 -9.551502 59.154522 22.838867 12.99583 4.388232 6.078036 -6.851749 -1.543041 -7.875247 8.658564 6.882341 5.18864 -5.245626 -1.298041 13.235107 5.987789 -12.034873 -7.25764 -1.109854 13.261816 -3.87516 3.761122 15.595119 5.525975 3.10477 6.38216 -9.099093 -9.911502 11.061786 4.684994 
-0.025549 0.581646 -0.002672 2.832677 1.968765 8.958978 -5.510044 8.859064 -8.066011 -0.231384 -1.626821 -16.053505 -2.23826 -6.930153 5.771585 5.390377 -13.476834 -1.548137 -5.771489 14.307246 3.79309 -7.420229 11.582672 -12.620702 21.126163 -16.583189 -42.789776 1.738265 -29.748484 -13.290832 -10.008527 -9.823334 7.742199 7.821186 7.864838 21.047842 14.561384 26.13265 47.170872 -10.206556 58.946945 24.300049 13.710861 4.667285 6.417805 -7.410482 -1.604863 -8.805521 8.911174 7.398437 6.10287 -5.774114 -1.857757 13.792273 6.434277 -12.740688 -7.59009 -1.305158 13.900157 -4.546153 3.467086 16.351809 6.558602 3.348768 6.781979 -9.796793 -10.196112 11.831417 5.04552 
-0.029487 0.580739 0.000913 2.780143 2.376096 9.344905 -5.239458 9.148015 -8.729528 -0.28036 -1.563501 -16.623276 -1.86422 -6.765568 6.32716 6.174485 -13.896001 -1.544563 -5.970337 14.8769 3.90488 -7.752073 12.155684 -12.062566 20.618378 -16.386051 -42.382877 1.393069 -29.872147 -13.983054 -10.265427 -10.204119 8.071519 8.087861 7.937451 21.478081 13.843623 27.598557 47.043907 -7.576195 56.070889 23.163948 14.210079 4.87333 6.643838 -7.582145 -1.292124 -9.358088 9.03834 7.970462 6.735577 -6.175 -2.311994 14.107488 6.599275 -13.220394 -7.847366 -1.236998 14.693843 -5.06404 3.006845 17.198935 7.262917 3.495193 6.930501 -10.402493 -10.44939 12.331539 5.274149 
-0.032736 0.579067 -0.001541 2.674143 2.241795 9.362041 -4.843664 9.125251 -9.042171 -0.280979 -1.437112 -16.719135 -1.70425 -6.412458 6.435729 6.65365 -13.979853 -1.426286 -6.097412 14.978037 3.912191 -8.081835 12.184883 -11.47129 20.379862 -16.762794 -42.157883 1.41203 -29.871078 -14.097332 -10.371814 -10.279493 8.111215 7.942326 7.911345 21.713366 13.227157 29.097309 47.24707 -3.636121 51.967926 20.734421 14.320366 4.933932 6.686285 -7.794032 -0.876935 -9.37741 9.232525 8.139588 7.108129 -6.449189 -2.478407 14.069135 6.607074 -13.33749 -7.910176 -1.336314 15.214059 -5.029496 2.900496 17.68668 7.45733 3.241445 6.842476 -10.735294 -10.521185 12.431104 5.315901 
-0.035 0.577064 -0.006806 2.659168 1.861 9.344244 -4.40892 9.040707 -9.258951 -0.30516 -1.315204 -16.72439 -1.705211 -6.158432 6.392549 7.009219 -14.037161 -1.274499 -6.19082 14.986589 3.891656 -8.422658 12.054254 -10.860023 20.29966 -17.359413 -41.941582 1.516421 -30.023203 -14.101272 -10.466285 -10.298286 8.085262 7.673855 7.933137 21.968004 12.813231 30.558062 47.419697 -0.18484 47.432774 18.63769 14.36327 4.968408 6.69299 -8.264514 -0.451342 -9.324895 9.636244 8.101269 7.465365 -6.85581 -2.673562 13.890834 6.550863 -13.394433 -7.928627 -1.848584 15.58977 -4.835566 3.021884 18.028114 7.501483 2.904361 6.632206 -11.070565 -10.53313 12.456431 5.323543 
-0.035917 0.575596 -0.012151 2.787163 1.307531 9.244176 -3.9544 8.883993 -9.33801 -0.400959 -1.173698 -16.562862 -1.732117 -5.760373 6.31049 7.361271 -13.934825 -1.122642 -6.285519 14.827808 3.825671 -8.6101 11.845156 -10.379372 20.318085 -18.193399 -41.909599 1.826269 -30.199423 -13.923289 -10.514696 -10.216417 7.959943 7.385427 7.741777 22.20616 12.398607 32.107208 47.504528 2.534779 43.019512 16.718441 14.293195 4.951531 6.624237 -8.883471 -0.022249 -9.162333 10.225597 7.877127 7.76586 -7.222695 -2.927508 13.564751 6.441006 -13.311654 -7.88699 -2.474857 15.942739 -4.537222 3.212527 18.293047 7.3944 2.488612 6.49478 -11.240467 -10.514542 12.339753 5.25283 
-0.03554 0.574769 -0.01698 3.032322 0.794651 9.141073 -3.651654 8.756267 -9.356153 -0.502311 -1.013472 -16.419043 -1.779691 -5.433093 6.223759 7.563197 -13.857634 -1.046058 -6.395204 14.673521 3.755106 -8.755199 11.698804 -9.992527 20.39846 -18.843512 -41.923496 2.069565 -30.569397 -13.79974 -10.554045 -10.14121 7.840224 7.168507 7.507796 22.475977 12.082412 33.390915 47.538307 4.478483 38.962509 15.221191 14.223538 4.916188 6.573175 -9.670736 0.425325 -9.00287 10.922559 7.664019 7.998806 -7.549158 -3.173371 13.266473 6.329239 -13.221187 -7.853365 -3.226473 16.237864 -4.233716 3.5248 18.594746 7.162169 2.117203 6.391281 -11.397286 -10.525144 12.22067 5.190087 
-0.034872 0.57416 -0.021105 3.372602 0.362948 9.102462 -3.406235 8.747066 -9.402483 -0.60355 -0.840615 -16.324493 -1.810255 -5.227927 6.276504 7.618987 -13.84698 -1.037711 -6.544823 14.593437 3.698209 -8.848241 11.65378 -9.693771 20.376595 -19.25654 -42.006081 2.243034 -30.989897 -13.785418 -10.595644 -10.115705 7.760526 7.06536 7.283582 22.761305 11.834188 34.35083 47.474991 5.519999 35.887054 14.374087 14.197028 4.882329 6.569751 -10.487068 0.73565 -8.930486 11.451945 7.377918 8.293674 -7.850929 -3.378904 13.051302 6.247578 -13.183227 -7.862891 -4.101341 16.400352 -3.953451 3.950284 18.781532 6.960123 1.878335 6.335948 -11.612624 -10.572707 12.151195 5.168895 
-0.03384 0.573747 -0.024019 3.683026 0.109385 9.041263 -3.202028 8.763658 -9.419893 -0.664489 -0.698888 -16.228325 -1.812792 -5.105992 6.306925 7.654098 -13.815362 -1.066879 -6.677635 14.520534 3.645098 -8.875685 11.610054 -9.481512 20.316387 -19.516251 -42.113888 2.370084 -31.334221 -13.78445 -10.615337 -10.088458 7.696687 6.985237 7.107476 22.981567 11.601932 35.046074 47.478611 5.997864 33.904114 13.909391 14.164941 4.847029 6.567711 -11.132262 0.989435 -8.900879 11.797496 7.160038 8.499011 -8.051288 -3.522944 12.879086 6.190669 -13.137911 -7.875702 -4.805465 16.527834 -3.723665 4.296685 18.934076 6.78177 1.645464 6.334092 -11.773436 -10.616426 12.080176 5.144445 
-0.032671 0.573476 -0.025504 3.872082 0.040497 9.022672 -3.098108 8.801213 -9.415038 -0.664175 -0.573338 -16.190569 -1.753611 -4.985171 6.364603 7.592971 -13.820152 -1.124629 -6.760639 14.498757 3.600901 -8.89554 11.599411 -9.356839 20.25668 -19.595373 -42.214691 2.402082 -31.614939 -13.832917 -10.642722 -10.077463 7.663159 6.944905 6.978032 23.167194 11.406094 35.517139 47.476192 6.154344 32.606831 13.661846 14.16134 4.823014 6.575711 -11.536332 1.313266 -8.919805 11.980185 7.194467 8.600603 -8.247885 -3.570719 12.781238 6.157608 -13.118523 -7.899976 -5.216293 16.62254 -3.620335 4.518342 19.059866 6.648273 1.456117 6.357795 -11.897291 -10.661839 12.046351 5.135749 
-0.031401 0.573286 -0.025842 3.902507 0.137569 9.016947 -3.050972 8.843048 -9.401035 -0.621456 -0.468851 -16.188761 -1.64086 -4.832529 6.453941 7.488965 -13.847421 -1.170061 -6.792584 14.510293 3.571958 -8.917608 11.595863 -9.272021 20.203571 -19.593679 -42.306538 2.396871 -31.815599 -13.885673 -10.673553 -10.078099 7.650118 6.914326 6.92802 23.297972 11.233582 35.841927 47.471943 6.139869 31.792795 13.526823 14.170937 4.809346 6.589285 -11.669171 1.662073 -8.989141 12.024444 7.400536 8.636503 -8.424666 -3.578203 12.730063 6.131892 -13.120441 -7.927502 -5.326029 16.693363 -3.636961 4.585054 19.1061 6.586513 1.323597 6.348472 -11.997433 -10.691401 12.041435 5.138687 
